<!--?xml version="1.0" encoding="utf-8"?-->
<!-- Generator: Adobe Illustrator 15.1.0, SVG Export Plug-In . SVG Version: 6.00 Build 0)  -->

<svg version="1.1" id="_x32_" xmlns="http://www.w3.org/2000/svg" xmlns:xlink="http://www.w3.org/1999/xlink" x="0px" y="0px" width="512px" height="512px" viewBox="0 0 512 512" style="width: 32px; height: 32px; opacity: 1;" xml:space="preserve">
<style type="text/css">

	.st0{fill:#4B4B4B;}

</style>
<g>
	<path class="st0" d="M419.188,263c-14.688-31.563-36.719-58-56.781-78.5c-10.031-10.234-19.625-18.984-27.531-26.047
		c-0.969-0.844-1.813-1.594-2.719-2.391c5.938-6.063,9.625-14.328,9.625-23.484c-0.031-13.047-7.531-24.234-18.406-29.813
		c3.438-5.813,10.563-15.484,24.844-27.047c4.969-4.016,8.906-8.531,11.625-13.469c2.75-4.938,4.25-10.344,4.219-15.734
		c0.063-9.375-4.656-18.141-11.906-23.703c-7.25-5.641-16.781-8.531-27.406-8.547c-5.813,0.016-12.016,0.875-18.484,2.688
		l-0.078,0.031c-2.625,0.719-4.375,0.922-5.422,0.906c-0.859,0-1.25-0.094-1.547-0.188c-0.5-0.172-1.156-0.484-2.797-1.891
		c-2.391-2.016-6.453-6.375-13.109-9.938C276.625,2.282,267.719-0.031,256,0c-8.969,0-16.219,1.281-22.156,3.547
		c-9,3.344-14.469,8.891-17.563,11.625c-1.563,1.406-2.5,2.078-3.031,2.328c-0.547,0.234-0.719,0.359-2.031,0.391
		c-1.047,0.016-2.844-0.188-5.531-0.938l1.859,0.516l-1.828-0.516c-6.469-1.797-12.656-2.672-18.5-2.688
		c-10.625,0.016-20.125,2.906-27.375,8.547c-7.25,5.563-12,14.328-11.938,23.703c0,5.375,1.5,10.797,4.219,15.734
		c2.75,4.938,6.656,9.453,11.625,13.469c12.438,10.047,19.469,18.75,23.375,24.656c0.609,0.922,1,1.625,1.469,2.406
		c-10.875,5.578-18.375,16.75-18.375,29.797c0,9.156,3.688,17.422,9.594,23.484c-15.906,14.109-39.75,35.766-60.625,63.547
		c-11.5,15.297-22.094,32.469-29.875,51.391c-7.781,18.891-12.719,39.578-12.719,61.594C76.594,431.688,156.906,512,256,512
		c99.078,0,179.375-80.313,179.406-179.406C435.406,307.438,428.938,284.032,419.188,263z M203.844,143.094
		c-5.781-0.016-10.469-4.688-10.5-10.516c0.031-5.75,4.719-10.469,10.5-10.484h104.281c5.781,0.016,10.5,4.734,10.5,10.484
		c0,5.828-4.688,10.5-10.5,10.516H203.844z M178.313,57.735c-3.031-2.438-4.875-4.75-5.922-6.672
		c-1.047-1.906-1.328-3.375-1.359-4.547c0.078-1.953,0.688-3.516,3.031-5.469c2.375-1.859,6.719-3.641,13.156-3.641
		c3.531,0,7.625,0.531,12.25,1.828l-1.859-0.516l1.875,0.516c4.156,1.156,7.984,1.797,11.734,1.797
		c3.063,0.016,6.031-0.453,8.734-1.344c4.766-1.547,8.234-4.234,10.703-6.344c3.75-3.297,5.813-5.438,8.875-7.047
		c3.063-1.594,7.5-3.141,16.469-3.156c6.781,0,11.063,0.938,14,2.047c4.344,1.688,6.313,3.688,10.313,7.25
		c1.969,1.734,4.438,3.891,7.938,5.688c3.5,1.813,7.938,2.938,12.516,2.906c3.734,0,7.578-0.641,11.734-1.797h0.031
		c4.594-1.297,8.703-1.828,12.219-1.828c6.438,0,10.813,1.781,13.156,3.641c2.375,1.953,2.969,3.516,3.031,5.469
		c0,1.172-0.281,2.641-1.344,4.547c-1.047,1.922-2.906,4.234-5.906,6.672c-22.984,18.516-31.563,34.641-34.313,41.234h-86.766
		C209.875,92.375,201.281,76.25,178.313,57.735z M366.5,443.094c-28.313,28.297-67.313,45.766-110.5,45.781
		c-43.188-0.016-82.188-17.484-110.5-45.781c-28.297-28.313-45.766-67.312-45.781-110.5c0-21.172,5.438-41.203,14.094-59.859
		c12.938-27.969,33.281-52.656,52.297-72.031c9.516-9.703,18.672-18.078,26.391-24.984c4.063-3.594,7.656-6.75,10.813-9.547
		c0.188,0,0.344,0.047,0.531,0.047h104.281c0.219,0,0.375-0.047,0.578-0.063c1.172,1.047,2.234,2.016,3.531,3.156
		c15.609,13.766,40.859,35.938,62.078,64.188c10.594,14.094,20.141,29.672,26.969,46.297c6.844,16.625,10.984,34.266,10.984,52.797
		C412.25,375.782,394.797,414.781,366.5,443.094z" style="fill: rgb(75, 75, 75);"></path>
	<polygon class="st0" points="314.469,330.079 274.188,330.079 269.844,336.797 269.844,352.922 314.469,352.922 314.469,352.985 
		314.469,372.547 314.469,375.813 269.844,375.813 269.844,410.375 242.141,410.375 242.141,375.813 197.531,375.813 
		197.531,372.547 197.531,352.985 197.531,352.922 242.141,352.922 242.141,336.829 237.813,330.079 197.531,330.079 
		197.531,310.516 225.219,310.516 201.688,273.875 225.156,273.875 255.969,321.844 286.844,273.875 310.313,273.875 
		286.781,310.516 314.469,310.516 	" style="fill: rgb(75, 75, 75);"></polygon>
</g>
</svg>
